<?xml version="1.0" encoding="UTF-8" standalone="no"?>
<!DOCTYPE svg PUBLIC "-//W3C//DTD SVG 1.1//EN" "http://www.w3.org/Graphics/SVG/1.1/DTD/svg11.dtd">
<svg width="100%" height="100%" viewBox="0 0 252 29" version="1.1" xmlns="http://www.w3.org/2000/svg" xmlns:xlink="http://www.w3.org/1999/xlink" xml:space="preserve" xmlns:serif="http://www.serif.com/" style="fill-rule:evenodd;clip-rule:evenodd;stroke-linejoin:round;stroke-miterlimit:2;">
    <g transform="matrix(1,0,0,1,-309.26,-285.676)">
        <g transform="matrix(0.0907783,0,0,0.0907783,302.542,163.842)">
            <g transform="matrix(1.15569,0,0,1.15569,-390.145,407.76)">
                <g>
                    <g transform="matrix(2.278,0,0,0.819762,-969.798,155.624)">
                        <g transform="matrix(1,0,0,1,-5.31783,0)">
                            <path d="M745.081,1052.01L773.341,874.108L791.175,874.108L819.525,1052.01L800.686,1052.01L778.554,898.76L785.687,898.76L763.555,1052.01L745.081,1052.01ZM760.537,1017.44L765.201,980.338L796.479,980.338L801.143,1017.44L760.537,1017.44Z" style="fill:white;fill-rule:nonzero;"/>
                        </g>
                        <g transform="matrix(1,0,0,1,2.27907,0)">
                            <path d="M815.684,1052.01L815.684,874.108L830.591,874.108L865.893,992.537L858.851,992.537L858.851,874.108L876.593,874.108L876.593,1052.01L861.686,1052.01L826.384,933.577L833.426,933.577L833.426,1052.01L815.684,1052.01Z" style="fill:white;fill-rule:nonzero;"/>
                        </g>
                        <path d="M903.938,1052.01L903.938,914.008L884.275,914.008L884.275,874.108L941.617,874.108L941.617,914.008L922.046,914.008L922.046,1052.01L903.938,1052.01Z" style="fill:white;fill-rule:nonzero;"/>
                        <g transform="matrix(1,0,0,1,3.79845,0)">
                            <path d="M971.797,1055.56C966.676,1055.56 961.95,1053.28 957.622,1048.7C953.293,1044.13 949.528,1037.65 946.327,1029.26C943.126,1020.87 940.642,1011.09 938.873,999.907C937.105,988.725 936.221,976.442 936.221,963.057C936.221,949.672 937.105,937.389 938.873,926.207C940.642,915.025 943.126,905.24 946.327,896.854C949.528,888.467 953.293,881.987 957.622,877.412C961.95,872.838 966.676,870.55 971.797,870.55C976.979,870.55 981.72,872.838 986.018,877.412C990.317,881.987 994.051,888.467 997.221,896.854C1000.39,905.24 1002.88,915.025 1004.68,926.207C1006.47,937.389 1007.37,949.672 1007.37,963.057C1007.37,976.442 1006.47,988.767 1004.68,1000.03C1002.88,1011.3 1000.39,1021.09 997.221,1029.39C994.051,1037.69 990.317,1044.13 986.018,1048.7C981.72,1053.28 976.979,1055.56 971.797,1055.56ZM971.797,1013.88C974.236,1013.88 976.507,1012.7 978.61,1010.33C980.714,1007.96 982.543,1004.52 984.098,1000.03C985.652,995.544 986.872,990.165 987.756,983.896C988.64,977.627 989.082,970.681 989.082,963.057C989.082,955.263 988.64,948.274 987.756,942.09C986.872,935.906 985.652,930.569 984.098,926.08C982.543,921.59 980.714,918.159 978.61,915.787C976.507,913.415 974.236,912.229 971.797,912.229C969.358,912.229 967.087,913.415 964.984,915.787C962.88,918.159 961.051,921.59 959.496,926.08C957.942,930.569 956.722,935.906 955.838,942.09C954.954,948.274 954.512,955.263 954.512,963.057C954.512,970.681 954.954,977.627 955.838,983.896C956.722,990.165 957.942,995.544 959.496,1000.03C961.051,1004.52 962.88,1007.96 964.984,1010.33C967.087,1012.7 969.358,1013.88 971.797,1013.88Z" style="fill:white;fill-rule:nonzero;"/>
                        </g>
                        <path d="M1015.97,1052.01L1015.97,874.108L1030.88,874.108L1066.18,992.537L1059.14,992.537L1059.14,874.108L1076.88,874.108L1076.88,1052.01L1061.97,1052.01L1026.67,933.577L1033.71,933.577L1033.71,1052.01L1015.97,1052.01Z" style="fill:white;fill-rule:nonzero;"/>
                    </g>
                    <g transform="matrix(3.81167,0,0,0.819762,-1328.94,155.624)">
                        <rect x="753.03" y="874.108" width="2.787" height="177.897" style="fill:white;fill-rule:nonzero;"/>
                        <path d="M768.662,1052.01L768.662,874.108L771.012,874.108L798.286,1036L797.029,1036L797.029,874.108L799.816,874.108L799.816,1052.01L797.52,1052.01L770.192,890.119L771.449,890.119L771.449,1052.01L768.662,1052.01Z" style="fill:white;fill-rule:nonzero;"/>
                        <path d="M813.262,1052.01L813.262,874.108L815.612,874.108L842.886,1036L841.628,1036L841.628,874.108L844.416,874.108L844.416,1052.01L842.12,1052.01L814.792,890.119L816.049,890.119L816.049,1052.01L813.262,1052.01Z" style="fill:white;fill-rule:nonzero;"/>
                        <path d="M867.918,1053.28C865.076,1053.28 862.389,1051.03 859.856,1046.54C857.324,1042.05 855.365,1036.25 853.981,1029.13L855.238,1019.48C856.55,1025.74 858.344,1031.04 860.622,1035.36C862.899,1039.68 865.313,1041.84 867.864,1041.84C870.414,1041.84 872.5,1040.27 874.122,1037.14C875.743,1034 876.946,1029.81 877.729,1024.56C878.513,1019.31 878.904,1013.46 878.904,1007.02C878.904,999.399 878.467,993.299 877.593,988.725C876.718,984.15 875.57,980.508 874.149,977.797C872.728,975.086 871.179,972.799 869.503,970.935C867.827,969.071 866.133,967.081 864.42,964.963C862.708,962.845 861.141,960.092 859.72,956.703C858.299,953.315 857.16,948.698 856.304,942.853C855.447,937.008 855.019,929.426 855.019,920.107C855.019,911.636 855.493,903.843 856.44,896.727C857.388,889.611 858.863,883.85 860.868,879.445C862.872,875.04 865.441,872.838 868.574,872.838C870.688,872.838 872.774,874.278 874.832,877.158C876.891,880.038 878.649,883.935 880.107,888.848L879.068,899.268C877.465,894.185 875.743,890.416 873.903,887.959C872.063,885.502 870.287,884.274 868.574,884.274C866.133,884.274 864.111,885.883 862.507,889.102C860.904,892.322 859.72,896.6 858.955,901.936C858.189,907.273 857.807,913.246 857.807,919.853C857.807,927.477 858.235,933.577 859.091,938.151C859.948,942.726 861.086,946.368 862.507,949.079C863.928,951.79 865.495,954.077 867.208,955.941C868.92,957.805 870.615,959.795 872.291,961.913C873.967,964.031 875.516,966.784 876.937,970.173C878.358,973.561 879.505,978.136 880.38,983.896C881.255,989.657 881.692,997.111 881.692,1006.26C881.692,1014.56 881.2,1022.31 880.216,1029.51C879.232,1036.71 877.729,1042.47 875.707,1046.8C873.685,1051.12 871.088,1053.28 867.918,1053.28Z" style="fill:white;fill-rule:nonzero;"/>
                        <path d="M890.71,1052.01L890.71,874.108L906.67,874.108C910.787,874.108 914.012,878.005 916.344,885.799C918.676,893.592 919.842,904.859 919.842,919.599C919.842,929.256 919.35,937.389 918.366,943.996C917.383,950.604 916.025,955.56 914.294,958.864C912.564,962.167 910.623,963.819 908.474,963.819L909.457,958.737C912.081,958.737 914.322,960.515 916.18,964.073C918.038,967.631 919.45,972.799 920.416,979.576C921.382,986.353 921.864,994.824 921.864,1004.99C921.864,1019.9 920.698,1031.46 918.366,1039.68C916.034,1047.9 912.5,1052.01 907.763,1052.01L890.71,1052.01ZM893.498,1040.82L907.763,1040.82C911.443,1040.82 914.249,1037.9 916.18,1032.06C918.111,1026.21 919.077,1016.85 919.077,1003.97C919.077,991.266 918.111,981.99 916.18,976.145C914.249,970.3 911.443,967.377 907.763,967.377L893.17,967.377L893.17,956.195L906.561,956.195C909.876,956.195 912.445,953.23 914.267,947.3C916.089,941.37 917,932.475 917,920.616C917,908.925 916.089,900.115 914.267,894.185C912.445,888.255 909.876,885.29 906.561,885.29L893.498,885.29L893.498,1040.82Z" style="fill:white;fill-rule:nonzero;"/>
                        <path d="M931.593,1052.01L931.593,874.108L945.312,874.108C948.519,874.108 951.27,876.48 953.565,881.224C955.861,885.968 957.628,892.787 958.867,901.682C960.106,910.577 960.725,921.378 960.725,934.085C960.725,946.453 960.106,957.085 958.867,965.979C957.628,974.874 955.861,981.736 953.565,986.565C951.27,991.393 948.519,993.808 945.312,993.808L933.124,993.808L934.381,987.708L934.381,1052.01L931.593,1052.01ZM958.156,1052.01L948.209,987.454L951.379,987.454L961.327,1052.01L958.156,1052.01ZM934.381,988.471L933.124,982.371L945.312,982.371C949.43,982.371 952.554,978.136 954.686,969.664C956.817,961.193 957.883,949.333 957.883,934.085C957.883,918.667 956.817,906.765 954.686,898.379C952.554,889.992 949.43,885.799 945.312,885.799L933.124,885.799L934.381,879.445L934.381,988.471Z" style="fill:white;fill-rule:nonzero;"/>
                        <path d="M985.703,1053.28C980.966,1053.28 977.232,1046.84 974.499,1033.96C971.766,1021.09 970.4,1001.94 970.4,976.526L970.4,874.108L973.187,874.108L973.187,976.018C973.187,998.213 974.28,1014.65 976.466,1025.32C978.653,1036 981.75,1041.33 985.758,1041.33C989.73,1041.33 992.809,1036 994.995,1025.32C997.181,1014.65 998.274,998.213 998.274,976.018L998.274,874.108L1001.06,874.108L1001.06,976.526C1001.06,1001.94 999.696,1021.09 996.963,1033.96C994.23,1046.84 990.477,1053.28 985.703,1053.28Z" style="fill:white;fill-rule:nonzero;"/>
                        <path d="M1030.3,1053.28C1027.46,1053.28 1024.83,1051.03 1022.4,1046.54C1019.98,1042.05 1017.88,1035.74 1016.09,1027.61C1014.31,1019.48 1012.92,1009.95 1011.94,999.018C1010.96,988.09 1010.46,976.103 1010.46,963.057C1010.46,950.011 1010.96,938.024 1011.94,927.096C1012.92,916.168 1014.32,906.638 1016.12,898.506C1017.92,890.373 1020.03,884.062 1022.43,879.572C1024.84,875.082 1027.46,872.838 1030.3,872.838C1033,872.838 1035.52,874.871 1037.87,878.937C1040.22,883.003 1042.24,889.187 1043.91,897.489L1042.16,905.876C1040.52,898.421 1038.71,893.042 1036.72,889.738C1034.74,886.434 1032.63,884.782 1030.41,884.782C1027.97,884.782 1025.7,886.73 1023.61,890.627C1021.51,894.524 1019.69,900.03 1018.14,907.146C1016.59,914.262 1015.39,922.564 1014.53,932.052C1013.68,941.54 1013.25,951.875 1013.25,963.057C1013.25,974.239 1013.68,984.574 1014.53,994.062C1015.39,1003.55 1016.59,1011.85 1018.14,1018.97C1019.69,1026.08 1021.51,1031.59 1023.61,1035.49C1025.7,1039.38 1027.97,1041.33 1030.41,1041.33C1032.63,1041.33 1034.74,1039.68 1036.72,1036.38C1038.71,1033.07 1040.52,1027.61 1042.16,1019.98L1043.91,1028.37C1042.24,1036.67 1040.22,1042.9 1037.87,1047.05C1035.52,1051.2 1033,1053.28 1030.3,1053.28Z" style="fill:white;fill-rule:nonzero;"/>
                        <path d="M1055.39,1007.02L1055.28,990.758L1079.66,874.108L1083.05,874.108L1065.99,956.195L1064.41,964.073L1055.39,1007.02ZM1052.99,1052.01L1052.99,874.108L1055.77,874.108L1055.77,1052.01L1052.99,1052.01ZM1080.81,1052.01L1063.59,960.515L1065.5,951.112L1084.19,1052.01L1080.81,1052.01Z" style="fill:white;fill-rule:nonzero;"/>
                    </g>
                </g>
            </g>
            <g transform="matrix(0.471229,0,0,0.471229,-1.11264,793.047)">
                <g transform="matrix(6.65094,0,0,6.65094,23.1536,-536.347)">
                    <path d="M121.176,281.002C121.176,267.109 109.897,255.83 96.004,255.83L45.659,255.83C31.766,255.83 20.487,267.109 20.487,281.002L20.487,331.347C20.487,345.239 31.766,356.519 45.659,356.519L96.004,356.519C109.897,356.519 121.176,345.239 121.176,331.347L121.176,281.002Z" style="fill:rgb(94,197,225);"/>
                </g>
                <g transform="matrix(23.0769,0,0,23.0769,298.098,1315.38)">
                    <path d="M8.5,2C8.774,2 9,2.226 9,2.5L9,13.5C9,13.774 8.774,14 8.5,14C8.226,14 8,13.774 8,13.5L8,2.5C8,2.226 8.226,2 8.5,2ZM6.5,4C6.774,4 7,4.226 7,4.5L7,11.5C7,11.774 6.774,12 6.5,12C6.226,12 6,11.774 6,11.5L6,4.5C6,4.226 6.226,4 6.5,4ZM10.5,4C10.774,4 11,4.226 11,4.5L11,11.5C11,11.774 10.774,12 10.5,12C10.226,12 10,11.774 10,11.5L10,4.5C10,4.226 10.226,4 10.5,4ZM4.5,5.5C4.774,5.5 5,5.726 5,6L5,10C5,10.274 4.774,10.5 4.5,10.5C4.226,10.5 4,10.274 4,10L4,6C4,5.726 4.226,5.5 4.5,5.5ZM12.5,5.5C12.774,5.5 13,5.726 13,6L13,10C13,10.274 12.774,10.5 12.5,10.5C12.226,10.5 12,10.274 12,10L12,6C12,5.726 12.226,5.5 12.5,5.5ZM2.5,6.5C2.774,6.5 3,6.726 3,7L3,9C3,9.274 2.774,9.5 2.5,9.5C2.226,9.5 2,9.274 2,9L2,7C2,6.726 2.226,6.5 2.5,6.5ZM14.5,6.5C14.774,6.5 15,6.726 15,7L15,9C15,9.274 14.774,9.5 14.5,9.5C14.226,9.5 14,9.274 14,9L14,7C14,6.726 14.226,6.5 14.5,6.5Z" style="fill:white;"/>
                </g>
            </g>
        </g>
    </g>
</svg>
