<?xml version="1.0" encoding="UTF-8" standalone="no"?>
<!DOCTYPE svg PUBLIC "-//W3C//DTD SVG 1.1//EN" "http://www.w3.org/Graphics/SVG/1.1/DTD/svg11.dtd">
<svg width="100%" height="100%" viewBox="0 0 550 99" version="1.1" xmlns="http://www.w3.org/2000/svg" xmlns:xlink="http://www.w3.org/1999/xlink" xml:space="preserve" xmlns:serif="http://www.serif.com/" style="fill-rule:evenodd;clip-rule:evenodd;stroke-linejoin:round;stroke-miterlimit:2;">
    <g transform="matrix(1,0,0,1,-25,-250.542)">
        <g transform="matrix(0.349461,0,0,0.349461,-248.77,-433.867)">
            <g>
                <g>
                    <g transform="matrix(1,0,0,1,343.671,77.5991)">
                        <path d="M476.612,2063.03L474.32,2016.78L537.028,1949.48L582.445,1949.48L519.945,2017.19L497.028,2041.15L476.612,2063.03ZM439.737,2095.32L439.737,1949.48L480.57,1949.48L480.57,2095.32L439.737,2095.32ZM537.653,2095.32L490.153,2035.11L517.028,2006.36L585.57,2095.32L537.653,2095.32Z" style="fill:white;fill-rule:nonzero;"/>
                        <path d="M611.612,2095.32L611.612,2033.65L621.195,2058.44L555.987,1949.48L599.528,1949.48L646.612,2028.44L621.403,2028.44L668.695,1949.48L708.695,1949.48L643.695,2058.44L652.862,2033.65L652.862,2095.32L611.612,2095.32Z" style="fill:white;fill-rule:nonzero;"/>
                        <path d="M697.653,2095.32L697.653,1949.48L738.903,1949.48L738.903,2062.61L808.487,2062.61L808.487,2095.32L697.653,2095.32Z" style="fill:white;fill-rule:nonzero;"/>
                        <path d="M856.403,2005.94L924.112,2005.94L924.112,2036.78L856.403,2036.78L856.403,2005.94ZM859.32,2063.44L935.57,2063.44L935.57,2095.32L818.487,2095.32L818.487,1949.48L932.862,1949.48L932.862,1981.36L859.32,1981.36L859.32,2063.44Z" style="fill:white;fill-rule:nonzero;"/>
                    </g>
                    <g transform="matrix(1.25801,0,0,1.61745,838.319,230.594)">
                        <rect x="416.026" y="1068.28" width="5" height="175" style="fill:white;fill-rule:nonzero;"/>
                    </g>
                </g>
                <g transform="matrix(1.77354,0,0,0.579088,1922.13,1068.5)">
                    <path d="M230.929,1798.79C233.831,1798.79 236.359,1800.49 238.513,1803.89C240.668,1807.29 242.346,1812.43 243.547,1819.31C244.749,1826.18 245.35,1834.69 245.35,1844.83L245.35,1908.37L241.949,1908.37L241.949,1845.66C241.949,1833.44 240.94,1824.13 238.922,1817.75C236.904,1811.36 234.081,1808.16 230.453,1808.16C227.686,1808.16 225.283,1809.9 223.242,1813.37C221.201,1816.84 219.648,1821.7 218.582,1827.95C217.517,1834.2 216.984,1841.7 216.984,1850.45L216.984,1908.37L213.583,1908.37L213.583,1753.79L216.984,1753.79L216.984,1829.83L216.372,1826.5C217.46,1817.88 219.251,1811.11 221.746,1806.18C224.24,1801.25 227.301,1798.79 230.929,1798.79Z" style="fill:white;fill-rule:nonzero;"/>
                </g>
                <g transform="matrix(4.17797,0,0,4.17797,887.424,-3438.13)">
                    <path d="M162.152,1308.3L163.852,1308.3L163.852,1343.3L162.152,1343.3L162.152,1308.3ZM137.602,1343.3L135.902,1343.3L135.902,1308.3L137.602,1308.3L137.602,1343.3ZM162.452,1326.3L137.302,1326.3L137.302,1324.75L162.452,1324.75L162.452,1326.3Z" style="fill:white;fill-rule:nonzero;"/>
                    <rect x="176.702" y="1308.3" width="1.7" height="35" style="fill:white;fill-rule:nonzero;"/>
                    <path d="M205.502,1343.5C202.935,1343.5 200.552,1343.06 198.352,1342.18C196.152,1341.3 194.235,1340.05 192.602,1338.45C190.969,1336.85 189.702,1334.98 188.802,1332.83C187.902,1330.68 187.452,1328.34 187.452,1325.8C187.452,1323.27 187.902,1320.93 188.802,1318.78C189.702,1316.63 190.969,1314.75 192.602,1313.15C194.235,1311.55 196.152,1310.31 198.352,1309.43C200.552,1308.55 202.935,1308.1 205.502,1308.1C207.869,1308.1 210.102,1308.49 212.202,1309.25C214.302,1310.02 216.119,1311.19 217.652,1312.75L216.602,1313.85C215.035,1312.35 213.327,1311.28 211.477,1310.63C209.627,1309.98 207.652,1309.65 205.552,1309.65C203.219,1309.65 201.052,1310.06 199.052,1310.88C197.052,1311.69 195.31,1312.84 193.827,1314.3C192.344,1315.77 191.194,1317.48 190.377,1319.43C189.56,1321.38 189.152,1323.5 189.152,1325.8C189.152,1328.1 189.56,1330.23 190.377,1332.18C191.194,1334.13 192.344,1335.84 193.827,1337.3C195.31,1338.77 197.052,1339.91 199.052,1340.73C201.052,1341.55 203.219,1341.95 205.552,1341.95C207.652,1341.95 209.627,1341.63 211.477,1340.98C213.327,1340.33 215.035,1339.24 216.602,1337.7L217.652,1338.8C216.119,1340.37 214.302,1341.55 212.202,1342.33C210.102,1343.11 207.869,1343.5 205.502,1343.5Z" style="fill:white;fill-rule:nonzero;"/>
                    <path d="M228.002,1334.3L227.952,1332.15L251.152,1308.3L253.252,1308.3L237.602,1324.45L236.602,1325.45L228.002,1334.3ZM226.552,1343.3L226.552,1308.3L228.252,1308.3L228.252,1343.3L226.552,1343.3ZM252.252,1343.3L236.002,1324.8L237.152,1323.65L254.352,1343.3L252.252,1343.3Z" style="fill:white;fill-rule:nonzero;"/>
                    <path d="M262.602,1324.75L281.902,1324.75L281.902,1326.3L262.602,1326.3L262.602,1324.75ZM262.902,1341.75L284.852,1341.75L284.852,1343.3L261.202,1343.3L261.202,1308.3L284.152,1308.3L284.152,1309.85L262.902,1309.85L262.902,1341.75Z" style="fill:white;fill-rule:nonzero;"/>
                    <path d="M302.252,1343.3L302.252,1330.85L302.652,1332L288.102,1308.3L289.952,1308.3L303.552,1330.4L302.702,1330.4L316.352,1308.3L318.152,1308.3L303.552,1332L303.952,1330.85L303.952,1343.3L302.252,1343.3Z" style="fill:white;fill-rule:nonzero;"/>
                </g>
            </g>
            <g transform="matrix(1.77354,0,0,0.579088,1907.13,1068.5)">
                <path d="M165.762,1909.2C164.991,1909.2 164.322,1908.34 163.755,1906.6C163.188,1904.86 162.905,1902.75 162.905,1900.25C162.905,1897.75 163.188,1895.66 163.755,1894C164.322,1892.33 164.991,1891.5 165.762,1891.5C166.533,1891.5 167.201,1892.33 167.768,1894C168.335,1895.66 168.619,1897.75 168.619,1900.25C168.619,1902.75 168.335,1904.86 167.768,1906.6C167.201,1908.34 166.533,1909.2 165.762,1909.2Z" style="fill:white;fill-rule:nonzero;"/>
            </g>
            <g transform="matrix(1.77354,0,0,0.579088,1922.13,1068.5)">
                <path d="M191.271,1909.2C187.824,1909.2 184.752,1906.84 182.053,1902.12C179.355,1897.4 177.224,1890.87 175.659,1882.54C174.095,1874.2 173.312,1864.69 173.312,1854C173.312,1843.16 174.095,1833.58 175.659,1825.25C177.224,1816.91 179.355,1810.42 182.053,1805.77C184.752,1801.11 187.824,1798.79 191.271,1798.79C194.128,1798.79 196.724,1800.45 199.059,1803.79C201.395,1807.12 203.288,1812.12 204.739,1818.79L202.223,1824.41C200.953,1818.86 199.366,1814.76 197.461,1812.12C195.556,1809.48 193.493,1808.16 191.271,1808.16C188.504,1808.16 186.021,1810.07 183.822,1813.89C181.623,1817.71 179.899,1823.06 178.652,1829.93C177.405,1836.81 176.782,1844.83 176.782,1854C176.782,1863.16 177.405,1871.18 178.652,1878.06C179.899,1884.93 181.623,1890.28 183.822,1894.1C186.021,1897.92 188.504,1899.83 191.271,1899.83C193.493,1899.83 195.556,1898.51 197.461,1895.87C199.366,1893.23 200.953,1889.13 202.223,1883.58L204.739,1889.2C203.288,1895.87 201.395,1900.87 199.059,1904.2C196.724,1907.54 194.128,1909.2 191.271,1909.2Z" style="fill:white;fill-rule:nonzero;"/>
            </g>
        </g>
    </g>
</svg>
