<?xml version="1.0" encoding="UTF-8" standalone="no"?>
<!DOCTYPE svg PUBLIC "-//W3C//DTD SVG 1.1//EN" "http://www.w3.org/Graphics/SVG/1.1/DTD/svg11.dtd">
<svg width="100%" height="100%" viewBox="0 0 250 63" version="1.1" xmlns="http://www.w3.org/2000/svg" xmlns:xlink="http://www.w3.org/1999/xlink" xml:space="preserve" xmlns:serif="http://www.serif.com/" style="fill-rule:evenodd;clip-rule:evenodd;stroke-linejoin:round;stroke-miterlimit:2;">
    <g transform="matrix(1,0,0,1,-175,-100.506)">
        <g>
            <g transform="matrix(0.208333,0,0,0.208333,143.75,-24.4939)">
                <g transform="matrix(0.985428,0,0,0.919356,-73.9404,305.079)">
                    <path d="M1445,369.739C1445,342.724 1424.54,320.791 1399.33,320.791L272.917,320.791C247.714,320.791 227.252,342.724 227.252,369.739L227.252,598.159C227.252,625.174 247.714,647.107 272.917,647.107L1399.33,647.107C1424.54,647.107 1445,625.174 1445,598.159L1445,369.739Z" style="fill:white;"/>
                </g>
                <g transform="matrix(0.97311,0,0,0.873388,-63.6411,327.325)">
                    <path d="M1445,369.739C1445,342.724 1425.31,320.791 1401.07,320.791L271.183,320.791C246.937,320.791 227.252,342.724 227.252,369.739L227.252,598.159C227.252,625.174 246.937,647.107 271.183,647.107L1401.07,647.107C1425.31,647.107 1445,625.174 1445,598.159L1445,369.739Z" style="fill:white;"/>
                </g>
                <g transform="matrix(0.615451,0,0,0.873388,453.175,327.325)">
                    <path d="M1445,369.739C1445,342.724 1413.87,320.791 1375.54,320.791L296.713,320.791C258.376,320.791 227.252,342.724 227.252,369.739L227.252,598.159C227.252,625.174 258.376,647.107 296.713,647.107L1375.54,647.107C1413.87,647.107 1445,625.174 1445,598.159L1445,369.739Z"/>
                </g>
                <g transform="matrix(1,0,0,2.51756,1.13687e-13,-431.844)">
                    <rect x="593.037" y="412.837" width="156.963" height="113.205"/>
                </g>
                <g transform="matrix(1,0,0,1,-2,0)">
                    <g transform="matrix(0.427055,0.427055,-0.409136,0.409136,574.165,222.217)">
                        <rect x="174.987" y="888.404" width="214.25" height="214.25"/>
                    </g>
                    <g transform="matrix(0.427055,0.427055,-0.409136,0.409136,753.319,222.217)">
                        <rect x="174.987" y="888.404" width="214.25" height="214.25"/>
                    </g>
                </g>
            </g>
            <g transform="matrix(1.89082,0,0,2.14716,-10.8118,24.3047)">
                <path d="M157.651,54.675C157.054,54.675 156.481,54.637 155.932,54.56C155.383,54.484 154.884,54.376 154.436,54.236C153.988,54.096 153.601,53.941 153.273,53.771L154.588,51.557C154.964,51.744 155.342,51.899 155.722,52.022C156.103,52.145 156.483,52.236 156.864,52.295C157.244,52.355 157.623,52.384 157.998,52.384C158.297,52.384 158.545,52.363 158.742,52.321C158.94,52.278 159.089,52.217 159.19,52.136C159.292,52.056 159.342,51.964 159.342,51.863C159.342,51.727 159.255,51.617 159.082,51.532C158.909,51.447 158.68,51.371 158.396,51.303C158.111,51.235 157.798,51.165 157.456,51.093C157.114,51.021 156.77,50.927 156.423,50.813C156.076,50.698 155.761,50.552 155.477,50.374C155.193,50.196 154.964,49.971 154.79,49.699C154.617,49.428 154.53,49.097 154.53,48.707C154.53,48.028 154.735,47.439 155.144,46.938C155.554,46.438 156.141,46.049 156.907,45.774C157.673,45.498 158.586,45.36 159.646,45.36C160.397,45.36 161.098,45.426 161.748,45.557C162.398,45.689 162.959,45.878 163.431,46.124L162.203,48.312C161.799,48.092 161.358,47.926 160.881,47.816C160.404,47.706 159.92,47.651 159.429,47.651C159.101,47.651 158.827,47.678 158.605,47.733C158.384,47.788 158.217,47.863 158.107,47.956C157.996,48.049 157.94,48.147 157.94,48.249C157.94,48.384 158.027,48.497 158.201,48.586C158.374,48.675 158.605,48.751 158.894,48.815C159.183,48.879 159.499,48.946 159.841,49.019C160.183,49.091 160.525,49.18 160.867,49.286C161.209,49.392 161.524,49.532 161.813,49.706C162.102,49.88 162.333,50.1 162.507,50.367C162.68,50.635 162.767,50.963 162.767,51.354C162.767,52.015 162.56,52.594 162.145,53.091C161.731,53.587 161.141,53.975 160.375,54.255C159.609,54.535 158.702,54.675 157.651,54.675Z" style="fill:white;fill-rule:nonzero;"/>
                <path d="M165.801,52.639L166.307,49.267L170.815,45.564L174.731,45.564L169.544,49.712L167.232,51.468L165.801,52.639ZM162.319,54.471L164.342,45.564L167.694,45.564L165.671,54.471L162.319,54.471ZM169.154,54.471L166.712,51.01L169.24,48.999L172.954,54.471L169.154,54.471Z" style="fill:white;fill-rule:nonzero;"/>
                <path d="M172.333,54.471L174.356,45.564L177.766,45.564L175.743,54.471L172.333,54.471Z" style="fill:white;fill-rule:nonzero;"/>
                <path d="M180.483,54.675C179.885,54.675 179.312,54.637 178.763,54.56C178.214,54.484 177.715,54.376 177.267,54.236C176.819,54.096 176.432,53.941 176.104,53.771L177.419,51.557C177.795,51.744 178.173,51.899 178.553,52.022C178.934,52.145 179.314,52.236 179.695,52.295C180.076,52.355 180.454,52.384 180.829,52.384C181.128,52.384 181.376,52.363 181.574,52.321C181.771,52.278 181.92,52.217 182.021,52.136C182.123,52.056 182.173,51.964 182.173,51.863C182.173,51.727 182.086,51.617 181.913,51.532C181.74,51.447 181.511,51.371 181.227,51.303C180.943,51.235 180.629,51.165 180.287,51.093C179.945,51.021 179.601,50.927 179.254,50.813C178.907,50.698 178.592,50.552 178.308,50.374C178.024,50.196 177.795,49.971 177.621,49.699C177.448,49.428 177.361,49.097 177.361,48.707C177.361,48.028 177.566,47.439 177.975,46.938C178.385,46.438 178.973,46.049 179.738,45.774C180.504,45.498 181.417,45.36 182.477,45.36C183.228,45.36 183.929,45.426 184.579,45.557C185.229,45.689 185.791,45.878 186.263,46.124L185.034,48.312C184.63,48.092 184.189,47.926 183.712,47.816C183.235,47.706 182.751,47.651 182.26,47.651C181.932,47.651 181.658,47.678 181.436,47.733C181.215,47.788 181.048,47.863 180.938,47.956C180.827,48.049 180.772,48.147 180.772,48.249C180.772,48.384 180.858,48.497 181.032,48.586C181.205,48.675 181.436,48.751 181.725,48.815C182.014,48.879 182.33,48.946 182.672,49.019C183.014,49.091 183.356,49.18 183.698,49.286C184.04,49.392 184.355,49.532 184.644,49.706C184.933,49.88 185.164,50.1 185.338,50.367C185.511,50.635 185.598,50.963 185.598,51.354C185.598,52.015 185.391,52.594 184.976,53.091C184.562,53.587 183.972,53.975 183.206,54.255C182.441,54.535 181.533,54.675 180.483,54.675Z" style="fill:white;fill-rule:nonzero;"/>
                <path d="M187.202,54.471L188.69,47.892L185.728,47.892L186.263,45.564L195.597,45.564L195.063,47.892L192.1,47.892L190.612,54.471L187.202,54.471Z" style="fill:white;fill-rule:nonzero;"/>
                <path d="M191.32,54.471L197.765,45.564L201.117,45.564L203.516,54.471L200.12,54.471L198.487,46.951L199.817,46.951L194.918,54.471L191.32,54.471ZM194.297,52.919L195.655,50.756L200.308,50.756L200.684,52.919L194.297,52.919Z" style="fill:white;fill-rule:nonzero;"/>
                <path d="M207.967,54.675C206.926,54.675 206.016,54.507 205.235,54.172C204.455,53.837 203.851,53.37 203.422,52.772C202.993,52.174 202.779,51.481 202.779,50.692C202.779,49.911 202.935,49.195 203.249,48.541C203.562,47.888 204.002,47.324 204.571,46.849C205.139,46.374 205.813,46.007 206.594,45.748C207.374,45.49 208.231,45.36 209.166,45.36C210.139,45.36 211.001,45.513 211.752,45.818C212.504,46.124 213.063,46.565 213.429,47.142L210.972,48.834C210.76,48.503 210.486,48.247 210.148,48.064C209.811,47.882 209.412,47.791 208.949,47.791C208.545,47.791 208.176,47.856 207.844,47.988C207.511,48.119 207.225,48.306 206.984,48.548C206.743,48.79 206.555,49.076 206.42,49.407C206.285,49.738 206.218,50.102 206.218,50.501C206.218,50.849 206.305,51.154 206.478,51.417C206.652,51.68 206.895,51.884 207.208,52.028C207.521,52.172 207.885,52.244 208.299,52.244C208.694,52.244 209.082,52.164 209.462,52.003C209.843,51.841 210.206,51.578 210.553,51.214L212.562,52.906C211.945,53.568 211.259,54.028 210.502,54.287C209.746,54.545 208.901,54.675 207.967,54.675Z" style="fill:white;fill-rule:nonzero;"/>
                <path d="M215.972,52.639L216.478,49.267L220.986,45.564L224.902,45.564L219.714,49.712L217.402,51.468L215.972,52.639ZM212.489,54.471L214.512,45.564L217.865,45.564L215.842,54.471L212.489,54.471ZM219.324,54.471L216.882,51.01L219.411,48.999L223.125,54.471L219.324,54.471Z" style="fill:white;fill-rule:nonzero;"/>
            </g>
        </g>
    </g>
</svg>
