<?xml version="1.0" encoding="UTF-8" standalone="no"?>
<!DOCTYPE svg PUBLIC "-//W3C//DTD SVG 1.1//EN" "http://www.w3.org/Graphics/SVG/1.1/DTD/svg11.dtd">
<svg width="100%" height="100%" viewBox="0 0 250 63" version="1.1" xmlns="http://www.w3.org/2000/svg" xmlns:xlink="http://www.w3.org/1999/xlink" xml:space="preserve" xmlns:serif="http://www.serif.com/" style="fill-rule:evenodd;clip-rule:evenodd;stroke-linejoin:round;stroke-miterlimit:2;">
    <g transform="matrix(1,0,0,1,-38.7397,-268.75)">
        <g transform="matrix(0.208333,0,0,0.208333,7.48974,143.75)">
            <g transform="matrix(0.985428,0,0,0.919356,-73.9404,305.079)">
                <path d="M1445,369.739C1445,342.724 1424.54,320.791 1399.33,320.791L272.917,320.791C247.714,320.791 227.252,342.724 227.252,369.739L227.252,598.159C227.252,625.174 247.714,647.107 272.917,647.107L1399.33,647.107C1424.54,647.107 1445,625.174 1445,598.159L1445,369.739Z" style="fill:white;"/>
            </g>
            <g transform="matrix(0.97311,0,0,0.873388,-63.6411,327.325)">
                <path d="M1445,369.739C1445,342.724 1425.31,320.791 1401.07,320.791L271.183,320.791C246.937,320.791 227.252,342.724 227.252,369.739L227.252,598.159C227.252,625.174 246.937,647.107 271.183,647.107L1401.07,647.107C1425.31,647.107 1445,625.174 1445,598.159L1445,369.739Z" style="fill:white;"/>
            </g>
            <g transform="matrix(0.615451,0,0,0.873388,453.175,327.325)">
                <path d="M1445,369.739C1445,342.724 1413.87,320.791 1375.54,320.791L296.713,320.791C258.376,320.791 227.252,342.724 227.252,369.739L227.252,598.159C227.252,625.174 258.376,647.107 296.713,647.107L1375.54,647.107C1413.87,647.107 1445,625.174 1445,598.159L1445,369.739Z"/>
            </g>
            <g transform="matrix(1,0,0,2.51756,1.13687e-13,-431.844)">
                <rect x="593.037" y="412.837" width="156.963" height="113.205"/>
            </g>
            <g transform="matrix(1,0,0,1,-2,0)">
                <g transform="matrix(0.427055,0.427055,-0.409136,0.409136,574.165,222.217)">
                    <rect x="174.987" y="888.404" width="214.25" height="214.25"/>
                </g>
                <g transform="matrix(0.427055,0.427055,-0.409136,0.409136,753.319,222.217)">
                    <rect x="174.987" y="888.404" width="214.25" height="214.25"/>
                </g>
            </g>
            <g transform="matrix(10.8423,0,0,2.62768,-2902.08,110.057)">
                <path d="M331.232,261.839C330.521,261.839 329.834,261.506 329.172,260.839C328.509,260.173 327.964,259.306 327.536,258.239L328.457,249.639C328.861,250.606 329.311,251.381 329.808,251.964C330.305,252.548 330.787,252.839 331.256,252.839C331.531,252.839 331.747,252.764 331.904,252.614C332.062,252.464 332.177,252.248 332.25,251.964C332.322,251.681 332.359,251.339 332.359,250.939C332.359,250.306 332.274,249.806 332.104,249.439C331.934,249.073 331.71,248.764 331.432,248.514C331.153,248.264 330.848,247.998 330.517,247.714C330.185,247.431 329.852,247.056 329.517,246.589C329.182,246.123 328.875,245.506 328.596,244.739C328.317,243.973 328.093,242.964 327.924,241.714C327.754,240.464 327.669,238.906 327.669,237.039C327.669,234.873 327.816,232.898 328.111,231.114C328.406,229.331 328.846,227.906 329.432,226.839C330.018,225.773 330.747,225.239 331.619,225.239C332.193,225.239 332.758,225.489 333.316,225.989C333.873,226.489 334.374,227.256 334.819,228.289L333.958,236.839C333.538,235.973 333.132,235.323 332.74,234.889C332.349,234.456 331.967,234.239 331.595,234.239C331.321,234.239 331.102,234.339 330.941,234.539C330.779,234.739 330.664,235.006 330.595,235.339C330.527,235.673 330.492,236.039 330.492,236.439C330.492,237.039 330.577,237.514 330.747,237.864C330.917,238.214 331.141,238.506 331.419,238.739C331.698,238.973 332.005,239.223 332.34,239.489C332.676,239.756 333.009,240.123 333.34,240.589C333.671,241.056 333.976,241.673 334.255,242.439C334.534,243.206 334.758,244.206 334.928,245.439C335.097,246.673 335.182,248.206 335.182,250.039C335.182,252.173 335.035,254.131 334.74,255.914C334.445,257.698 334.007,259.131 333.425,260.214C332.843,261.298 332.112,261.839 331.232,261.839Z" style="fill:white;fill-rule:nonzero;"/>
                <path d="M337.909,253.539L337.751,240.589L340.95,226.039L344.064,226.039L340.477,242.339L338.89,249.039L337.909,253.539ZM335.352,261.039L335.352,226.039L338.163,226.039L338.163,261.039L335.352,261.039ZM340.926,261.039L338.43,247.439L340.284,239.339L344.234,261.039L340.926,261.039Z" style="fill:white;fill-rule:nonzero;"/>
                <rect x="343.749" y="226.039" width="2.86" height="35" style="fill:white;fill-rule:nonzero;"/>
                <path d="M350.378,261.839C349.667,261.839 348.98,261.506 348.318,260.839C347.655,260.173 347.11,259.306 346.682,258.239L347.603,249.639C348.007,250.606 348.457,251.381 348.954,251.964C349.451,252.548 349.933,252.839 350.402,252.839C350.677,252.839 350.893,252.764 351.05,252.614C351.208,252.464 351.323,252.248 351.396,251.964C351.468,251.681 351.505,251.339 351.505,250.939C351.505,250.306 351.42,249.806 351.25,249.439C351.08,249.073 350.856,248.764 350.578,248.514C350.299,248.264 349.994,247.998 349.663,247.714C349.331,247.431 348.998,247.056 348.663,246.589C348.328,246.123 348.021,245.506 347.742,244.739C347.463,243.973 347.239,242.964 347.07,241.714C346.9,240.464 346.815,238.906 346.815,237.039C346.815,234.873 346.962,232.898 347.257,231.114C347.552,229.331 347.992,227.906 348.578,226.839C349.164,225.773 349.893,225.239 350.765,225.239C351.339,225.239 351.904,225.489 352.462,225.989C353.019,226.489 353.52,227.256 353.965,228.289L353.104,236.839C352.684,235.973 352.278,235.323 351.886,234.889C351.495,234.456 351.113,234.239 350.741,234.239C350.467,234.239 350.248,234.339 350.087,234.539C349.925,234.739 349.81,235.006 349.741,235.339C349.673,235.673 349.638,236.039 349.638,236.439C349.638,237.039 349.723,237.514 349.893,237.864C350.063,238.214 350.287,238.506 350.565,238.739C350.844,238.973 351.151,239.223 351.486,239.489C351.822,239.756 352.155,240.123 352.486,240.589C352.817,241.056 353.122,241.673 353.401,242.439C353.68,243.206 353.904,244.206 354.074,245.439C354.243,246.673 354.328,248.206 354.328,250.039C354.328,252.173 354.181,254.131 353.886,255.914C353.591,257.698 353.153,259.131 352.571,260.214C351.989,261.298 351.258,261.839 350.378,261.839Z" style="fill:white;fill-rule:nonzero;"/>
                <path d="M356.218,261.039L356.218,235.189L353.734,235.189L353.734,226.039L361.562,226.039L361.562,235.189L359.078,235.189L359.078,261.039L356.218,261.039Z" style="fill:white;fill-rule:nonzero;"/>
                <path d="M359.672,261.039L363.38,226.039L366.191,226.039L369.899,261.039L366.943,261.039L364.204,231.639L365.319,231.639L362.58,261.039L359.672,261.039ZM361.877,254.939L362.604,246.439L366.506,246.439L367.233,254.939L361.877,254.939Z" style="fill:white;fill-rule:nonzero;"/>
                <path d="M373.195,261.839C372.517,261.839 371.889,261.398 371.311,260.514C370.733,259.631 370.233,258.373 369.808,256.739C369.384,255.106 369.055,253.173 368.821,250.939C368.587,248.706 368.469,246.239 368.469,243.539C368.469,240.839 368.587,238.373 368.821,236.139C369.055,233.906 369.384,231.973 369.808,230.339C370.233,228.706 370.733,227.448 371.311,226.564C371.889,225.681 372.517,225.239 373.195,225.239C374.027,225.239 374.765,225.839 375.407,227.039C376.049,228.239 376.58,229.973 377,232.239L375.195,238.889C374.944,237.589 374.668,236.581 374.365,235.864C374.062,235.148 373.72,234.789 373.341,234.789C373.042,234.789 372.771,234.989 372.529,235.389C372.287,235.789 372.078,236.373 371.905,237.139C371.731,237.906 371.596,238.831 371.499,239.914C371.402,240.998 371.353,242.206 371.353,243.539C371.353,244.873 371.402,246.081 371.499,247.164C371.596,248.248 371.731,249.173 371.905,249.939C372.078,250.706 372.287,251.289 372.529,251.689C372.771,252.089 373.042,252.289 373.341,252.289C373.72,252.289 374.062,251.931 374.365,251.214C374.668,250.498 374.944,249.489 375.195,248.189L377,254.839C376.58,257.073 376.049,258.798 375.407,260.014C374.765,261.231 374.027,261.839 373.195,261.839Z" style="fill:white;fill-rule:nonzero;"/>
                <path d="M379.981,253.539L379.824,240.589L383.023,226.039L386.137,226.039L382.55,242.339L380.963,249.039L379.981,253.539ZM377.424,261.039L377.424,226.039L380.236,226.039L380.236,261.039L377.424,261.039ZM382.999,261.039L380.502,247.439L382.356,239.339L386.307,261.039L382.999,261.039Z" style="fill:white;fill-rule:nonzero;"/>
            </g>
        </g>
    </g>
</svg>
